<mxfile host="drawio-plugin" agent="Mozilla/5.0 (Macintosh; Intel Mac OS X 10_15_7) AppleWebKit/537.36 (KHTML, like Gecko) Chrome/122.0.0.0 Safari/537.36" modified="2025-03-31T14:55:42.014Z" version="22.1.22" etag="qkRYTIbAMgbyWvUg7Bmd" type="embed">
  <diagram name="Page-1" id="6133507b-19e7-1e82-6fc7-422aa6c4b21f">
    <mxGraphModel dx="1625" dy="1185" grid="1" gridSize="10" guides="1" tooltips="1" connect="1" arrows="1" fold="1" page="1" pageScale="1" pageWidth="1100" pageHeight="850" background="none" math="0" shadow="0">
      <root>
        <mxCell id="0" />
        <mxCell id="1" parent="0" />
        <mxCell id="22" value="" style="rounded=0;whiteSpace=wrap;html=1;fillColor=none;dashed=1;" vertex="1" parent="1">
          <mxGeometry x="50" y="610" width="290" height="170" as="geometry" />
        </mxCell>
        <mxCell id="18" value="" style="whiteSpace=wrap;html=1;fillColor=none;dashed=1;" vertex="1" parent="1">
          <mxGeometry x="370" y="260" width="250" height="210" as="geometry" />
        </mxCell>
        <mxCell id="19" value="&lt;font style=&quot;font-size: 50px;&quot;&gt;Vercel&lt;/font&gt;" style="text;html=1;strokeColor=none;fillColor=none;align=center;verticalAlign=middle;whiteSpace=wrap;rounded=0;" vertex="1" parent="1">
          <mxGeometry x="415" y="270" width="160" height="70" as="geometry" />
        </mxCell>
        <mxCell id="21" value="" style="rounded=0;whiteSpace=wrap;html=1;dashed=1;fillColor=none;" vertex="1" parent="1">
          <mxGeometry x="710" y="70" width="310" height="190" as="geometry" />
        </mxCell>
        <mxCell id="23" value="&lt;font style=&quot;font-size: 30px;&quot;&gt;Azure&lt;/font&gt;" style="text;html=1;strokeColor=none;fillColor=none;align=center;verticalAlign=middle;whiteSpace=wrap;rounded=0;" vertex="1" parent="1">
          <mxGeometry x="135" y="610" width="110" height="40" as="geometry" />
        </mxCell>
        <mxCell id="24" value="&lt;font style=&quot;font-size: 50px;&quot;&gt;Client&lt;/font&gt;" style="text;html=1;strokeColor=none;fillColor=none;align=center;verticalAlign=middle;whiteSpace=wrap;rounded=0;" vertex="1" parent="1">
          <mxGeometry x="785" y="90" width="160" height="70" as="geometry" />
        </mxCell>
        <mxCell id="28" value="" style="group" vertex="1" connectable="0" parent="1">
          <mxGeometry x="140" y="660" width="100" height="100" as="geometry" />
        </mxCell>
        <mxCell id="16" value="" style="shape=cylinder3;whiteSpace=wrap;html=1;boundedLbl=1;backgroundOutline=1;size=15;" vertex="1" parent="28">
          <mxGeometry width="100" height="100" as="geometry" />
        </mxCell>
        <mxCell id="17" value="Postgresql&lt;br&gt;Database" style="text;html=1;strokeColor=none;fillColor=none;align=center;verticalAlign=middle;whiteSpace=wrap;rounded=0;" vertex="1" parent="28">
          <mxGeometry x="15" y="50" width="70" height="30" as="geometry" />
        </mxCell>
        <mxCell id="29" value="" style="group" vertex="1" connectable="0" parent="1">
          <mxGeometry x="410" y="340" width="175" height="110" as="geometry" />
        </mxCell>
        <mxCell id="14" value="" style="rounded=0;whiteSpace=wrap;html=1;fillColor=none;" vertex="1" parent="29">
          <mxGeometry x="0.01" width="175" height="110" as="geometry" />
        </mxCell>
        <mxCell id="15" value="NextJs" style="text;html=1;strokeColor=none;fillColor=none;align=center;verticalAlign=middle;whiteSpace=wrap;rounded=0;" vertex="1" parent="29">
          <mxGeometry x="59.38" width="56.25" height="30" as="geometry" />
        </mxCell>
        <mxCell id="36" value="" style="group" vertex="1" connectable="0" parent="29">
          <mxGeometry x="10" y="70" width="70" height="30" as="geometry" />
        </mxCell>
        <mxCell id="34" value="" style="rounded=0;whiteSpace=wrap;html=1;fillColor=none;" vertex="1" parent="36">
          <mxGeometry y="5" width="70" height="20" as="geometry" />
        </mxCell>
        <mxCell id="35" value="raddix ui" style="text;html=1;strokeColor=none;fillColor=none;align=center;verticalAlign=middle;whiteSpace=wrap;rounded=0;" vertex="1" parent="36">
          <mxGeometry x="5" width="60" height="30" as="geometry" />
        </mxCell>
        <mxCell id="38" value="" style="group" vertex="1" connectable="0" parent="29">
          <mxGeometry x="10" y="40" width="70" height="30" as="geometry" />
        </mxCell>
        <mxCell id="39" value="" style="rounded=0;whiteSpace=wrap;html=1;fillColor=none;" vertex="1" parent="38">
          <mxGeometry y="5" width="70" height="20" as="geometry" />
        </mxCell>
        <mxCell id="40" value="Tailwind" style="text;html=1;strokeColor=none;fillColor=none;align=center;verticalAlign=middle;whiteSpace=wrap;rounded=0;" vertex="1" parent="38">
          <mxGeometry x="5" width="60" height="30" as="geometry" />
        </mxCell>
        <mxCell id="51" value="" style="group" vertex="1" connectable="0" parent="29">
          <mxGeometry x="90" y="40" width="70" height="30" as="geometry" />
        </mxCell>
        <mxCell id="52" value="" style="rounded=0;whiteSpace=wrap;html=1;fillColor=none;" vertex="1" parent="51">
          <mxGeometry y="5" width="70" height="20" as="geometry" />
        </mxCell>
        <mxCell id="53" value="Typescript" style="text;html=1;strokeColor=none;fillColor=none;align=center;verticalAlign=middle;whiteSpace=wrap;rounded=0;" vertex="1" parent="51">
          <mxGeometry x="5" width="60" height="30" as="geometry" />
        </mxCell>
        <mxCell id="31" value="" style="endArrow=classic;startArrow=classic;html=1;rounded=0;" edge="1" parent="1">
          <mxGeometry width="50" height="50" relative="1" as="geometry">
            <mxPoint x="200" y="590" as="sourcePoint" />
            <mxPoint x="360" y="360" as="targetPoint" />
            <Array as="points">
              <mxPoint x="200" y="360" />
            </Array>
          </mxGeometry>
        </mxCell>
        <mxCell id="33" value="" style="endArrow=classic;startArrow=classic;html=1;rounded=0;" edge="1" parent="1">
          <mxGeometry width="50" height="50" relative="1" as="geometry">
            <mxPoint x="640" y="320" as="sourcePoint" />
            <mxPoint x="760" y="270" as="targetPoint" />
            <Array as="points">
              <mxPoint x="760" y="320" />
            </Array>
          </mxGeometry>
        </mxCell>
        <mxCell id="57" value="Browser" style="text;html=1;strokeColor=none;fillColor=none;align=center;verticalAlign=middle;whiteSpace=wrap;rounded=0;" vertex="1" parent="1">
          <mxGeometry x="835" y="170" width="60" height="30" as="geometry" />
        </mxCell>
      </root>
    </mxGraphModel>
  </diagram>
</mxfile>
